<?xml version="1.0" standalone="no"?><!DOCTYPE svg PUBLIC "-//W3C//DTD SVG 1.1//EN" "http://www.w3.org/Graphics/SVG/1.1/DTD/svg11.dtd"><svg t="1662647642131" class="icon" viewBox="0 0 1024 1024" version="1.1" xmlns="http://www.w3.org/2000/svg" p-id="1934" xmlns:xlink="http://www.w3.org/1999/xlink" width="64" height="64"><path d="M837.8368 396.8c-154.4704-141.568-402.2784-88.9856-440.32-79.8208-3.2768 0.768-6.7584 0.4608-9.8304-0.9216L290.7648 273.408c-10.3424-4.5568-21.9136 3.072-21.76 14.336 0.2048 19.968 0.4608 49.8176 0.512 79.4112 0 4.5056-1.9968 8.8064-5.4272 11.776-50.3296 43.5712-83.3536 94.1056-103.2192 131.8912-2.6624 5.0688-7.936 8.2432-13.6704 8.2432h-30.72c-20.8896 0-37.8368 16.9472-37.8368 37.8368v123.0336c0 20.8896 16.9472 37.8368 37.8368 37.8368h25.8048c5.888 0 11.2128 3.3792 13.8752 8.6016 37.2224 72.8064 80.2816 116.48 109.9776 140.3904 3.6864 2.9184 5.7856 7.3728 5.7856 12.032v55.552c0 8.5504 6.9632 15.5136 15.5136 15.5136h114.8416c8.5504 0 15.5136-6.9632 15.5136-15.5136v-1.536c0-8.5504 6.9632-15.5136 15.5136-15.5136h192.4608c8.5504 0 15.5136 6.9632 15.5136 15.5136 0 8.5504 6.9632 15.5136 15.5136 15.5136h114.8416c8.5504 0 15.5136-6.9632 15.5136-15.5136v-45.7216c0-5.8368 3.328-11.0592 8.448-13.824 169.728-90.112 204.8512-327.3728 42.24-476.4672z" fill="#FFD05C" p-id="1935"></path><path d="M764.416 452.6592c31.3344-39.8848 50.1248-90.1632 50.1248-144.7936 0-129.536-105.0112-234.5984-234.5984-234.5984S345.3952 178.3296 345.3952 307.8656c0 54.6816 18.7392 104.9088 50.1248 144.7936h368.896z" fill="#FFD05C" p-id="1936"></path><path d="M805.8368 371.0976c-154.5216-109.056-372.8384-62.6688-408.3712-54.1184-3.2768 0.768-6.7584 0.4608-9.8304-0.9216l-42.0352-18.4832c-0.1536 3.4304-0.256 6.8608-0.256 10.2912 0 54.6816 18.7392 104.9088 50.1248 144.7936h368.9472a233.30816 233.30816 0 0 0 41.4208-81.5616z" fill="#FCA235" p-id="1937"></path><path d="M454.5024 629.2992c-22.6304 0-40.96-18.3296-40.96-40.96 0-11.4176-9.3184-20.736-20.736-20.736s-20.736 9.3184-20.736 20.736c0 22.6304-18.3296 40.96-40.96 40.96s-40.96-18.3296-40.96-40.96c0-56.6272 46.08-102.656 102.656-102.656s102.656 46.08 102.656 102.656c0 22.6304-18.3296 40.96-40.96 40.96zM665.088 312.064h-43.0592v-18.5344h43.0592c19.8144 0 35.84-16.0256 35.84-35.84a35.8912 35.8912 0 0 0-32.3072-35.6864l19.712-20.2752a35.88096 35.88096 0 0 0-0.7168-50.688c-14.1824-13.824-36.864-13.4656-50.688 0.7168l-51.6096 53.0944-54.1696-52.3264c-14.2336-13.7728-36.9152-13.3632-50.688 0.8704-13.7728 14.2336-13.3632 36.9152 0.8704 50.688l19.0976 18.432a35.7888 35.7888 0 0 0-28.8768 35.1744c0 19.8144 16.0256 35.84 35.84 35.84h43.008v18.5344h-43.008c-19.8144 0-35.84 16.0256-35.84 35.84s16.0256 35.84 35.84 35.84h43.008v14.0288c0 19.8144 16.0256 35.84 35.84 35.84s35.84-16.0256 35.84-35.84v-14.0288h43.0592c19.8144 0 35.84-16.0256 35.84-35.84s-16.0768-35.84-35.8912-35.84z" fill="#FFFFFF" p-id="1938"></path></svg>