<?xml version="1.0" standalone="no"?><!DOCTYPE svg PUBLIC "-//W3C//DTD SVG 1.1//EN" "http://www.w3.org/Graphics/SVG/1.1/DTD/svg11.dtd"><svg t="1662647657678" class="icon" viewBox="0 0 1024 1024" version="1.1" xmlns="http://www.w3.org/2000/svg" p-id="2553" xmlns:xlink="http://www.w3.org/1999/xlink" width="64" height="64"><path d="M832.8192 917.248H191.6416c-66.4064 0-120.2688-53.8624-120.2688-120.2688V388.6592c0-66.4064 53.8624-120.2688 120.2688-120.2688h641.1776c66.4064 0 120.2688 53.8624 120.2688 120.2688v408.32c0 66.4064-53.8624 120.2688-120.2688 120.2688z" fill="#FFD05C" p-id="2554"></path><path d="M685.6704 758.528l-478.0544-149.8624C144.2304 588.8 108.9536 521.3184 128.8192 457.9328L211.456 194.6112c19.8656-63.3856 87.3472-98.6624 150.7328-78.7968L840.192 265.728c63.3856 19.8656 98.6624 87.3472 78.7968 150.7328l-82.5344 263.2704c-19.9168 63.3856-87.3984 98.6624-150.784 78.7968z" fill="#FFD05C" p-id="2555"></path><path d="M851.8656 270.4896c-7.3728-1.3824-14.8992-2.0992-22.6816-2.0992H195.1744c-2.3552 0-4.6592 0.1024-6.9632 0.2048l-58.2656 185.856c-20.48 65.28 15.872 134.7584 81.1008 155.2384l471.1936 147.7632c65.28 20.48 134.7584-15.872 155.2384-81.1008L917.9136 419.84c18.8416-60.0064-10.4448-123.5968-66.048-149.3504z" fill="#FCA235" p-id="2556"></path><path d="M768.6656 742.2464m-59.2384 0a59.2384 59.2384 0 1 0 118.4768 0 59.2384 59.2384 0 1 0-118.4768 0Z" fill="#FFFFFF" p-id="2557"></path><path d="M71.3728 415.8976h881.7152v81.92H71.3728z" fill="#FFFFFF" p-id="2558"></path></svg>