<?xml version="1.0" standalone="no"?><!DOCTYPE svg PUBLIC "-//W3C//DTD SVG 1.1//EN" "http://www.w3.org/Graphics/SVG/1.1/DTD/svg11.dtd"><svg t="1662647425743" class="icon" viewBox="0 0 1024 1024" version="1.1" xmlns="http://www.w3.org/2000/svg" p-id="1783" xmlns:xlink="http://www.w3.org/1999/xlink" width="64" height="64"><path d="M707.7376 935.0144H197.9392c-54.6816 0-99.0208-44.3392-99.0208-99.0208V326.144c0-54.6816 44.3392-99.0208 99.0208-99.0208h509.7984c54.6816 0 99.0208 44.3392 99.0208 99.0208v509.7984c0 54.7328-44.3392 99.072-99.0208 99.072z" fill="#FFD05C" p-id="1784"></path><path d="M834.4576 799.2832H324.608c-54.6816 0-99.0208-44.3392-99.0208-99.0208V190.4128c0-54.6816 44.3392-99.0208 99.0208-99.0208h509.7984c54.6816 0 99.0208 44.3392 99.0208 99.0208v509.7984c0.0512 54.7328-44.288 99.072-98.9696 99.072z" fill="#FFD05C" p-id="1785"></path><path d="M707.7376 227.1232H225.5872v473.088c0 54.6816 44.3392 99.0208 99.0208 99.0208h482.1504V326.144c0-54.6816-44.3392-99.0208-99.0208-99.0208z" fill="#FCA235" p-id="1786"></path><path d="M575.0272 609.3312H498.8928v-33.0752h76.0832c22.6304 0 40.96-18.3296 40.96-40.96s-18.3296-40.96-40.96-40.96h-30.9248l53.0944-57.4464c15.36-16.64 14.336-42.5472-2.304-57.856-16.64-15.36-42.5472-14.336-57.856 2.304L457.8304 466.944 381.4912 383.5904c-15.3088-16.6912-41.216-17.8176-57.856-2.56-16.6912 15.2576-17.8176 41.1648-2.56 57.856l50.688 55.3472h-30.9248c-22.6304 0-40.96 18.3296-40.96 40.96s18.3296 40.96 40.96 40.96h76.0832v33.0752H340.8896c-22.6304 0-40.96 18.3296-40.96 40.96s18.3296 40.96 40.96 40.96h76.0832v46.9504c0 22.6304 18.3296 40.96 40.96 40.96s40.96-18.3296 40.96-40.96v-46.9504h76.0832c22.6304 0 40.96-18.3296 40.96-40.96 0.0512-22.528-18.2784-40.8576-40.9088-40.8576z" fill="#FFFFFF" p-id="1787"></path></svg>